<svg xmlns="http://www.w3.org/2000/svg" xmlns:xlink="http://www.w3.org/1999/xlink" width="32" height="32" viewBox="0 0 32 32">
  <defs>
    <linearGradient id="linear-gradient" x1="0.5" x2="0.5" y2="1" gradientUnits="objectBoundingBox">
      <stop offset="0" stop-color="#43d1fb"/>
      <stop offset="1" stop-color="#1cc4f7"/>
    </linearGradient>
  </defs>
  <g id="Group_4121" data-name="Group 4121" transform="translate(-508.645 -856.645)">
    <circle id="Ellipse_62" data-name="Ellipse 62" cx="16" cy="16" r="16" transform="translate(508.645 856.645)" fill="url(#linear-gradient)"/>
    <g id="tw" transform="translate(123.208 749.208)">
      <rect id="Rectangle_1784" data-name="Rectangle 1784" width="20" height="20" transform="translate(391.438 113.438)" fill="none"/>
      <path id="_x30_4.Twitter" d="M25.85,19.035a6.708,6.708,0,0,1-1.874.518,3.19,3.19,0,0,0,1.435-1.814,6.886,6.886,0,0,1-2.073.8,3.272,3.272,0,0,0-5.662,2.233,2.99,2.99,0,0,0,.08.738A9.2,9.2,0,0,1,11.036,18.1a3.281,3.281,0,0,0,1,4.366,3.139,3.139,0,0,1-1.475-.4,3.3,3.3,0,0,0,2.612,3.25,3.589,3.589,0,0,1-1.475.06,3.283,3.283,0,0,0,3.05,2.273A6.588,6.588,0,0,1,9.9,29a9.291,9.291,0,0,0,14.315-7.815,2.945,2.945,0,0,0-.02-.419,6.49,6.49,0,0,0,1.655-1.735Z" transform="translate(383.563 99.448)" fill="#fff"/>
    </g>
  </g>
</svg>
