<svg xmlns="http://www.w3.org/2000/svg" width="20" height="20" viewBox="0 0 20 20">
  <g id="menu" transform="translate(-0.263 -0.263)">
    <rect id="Rectangle_116" data-name="Rectangle 116" width="20" height="20" transform="translate(0.263 0.263)" fill="none"/>
    <path id="Path_4996" data-name="Path 4996" d="M908.855-1911.316a.855.855,0,0,1-.855-.855.855.855,0,0,1,.855-.855H924.25a.855.855,0,0,1,.855.855.855.855,0,0,1-.855.855Zm0-5.987a.855.855,0,0,1-.855-.855.855.855,0,0,1,.855-.855H924.25a.855.855,0,0,1,.855.855.855.855,0,0,1-.855.855Zm0-5.987a.855.855,0,0,1-.855-.855.855.855,0,0,1,.855-.855H924.25a.855.855,0,0,1,.855.855.855.855,0,0,1-.855.855Z" transform="translate(-906.289 1928.421)" fill="#fff"/>
  </g>
</svg>
