<svg xmlns="http://www.w3.org/2000/svg" xmlns:xlink="http://www.w3.org/1999/xlink" width="32" height="32" viewBox="0 0 32 32">
  <defs>
    <linearGradient id="linear-gradient" x1="0.5" x2="0.5" y2="1" gradientUnits="objectBoundingBox">
      <stop offset="0" stop-color="#00c6ff"/>
      <stop offset="1" stop-color="#0084ff"/>
    </linearGradient>
  </defs>
  <g id="msg" transform="translate(-703 -1274)">
    <circle id="Ellipse_11" data-name="Ellipse 11" cx="16" cy="16" r="16" transform="translate(703 1274)" fill="url(#linear-gradient)"/>
    <g id="msg-2" data-name="msg" transform="translate(709.368 1280.368)">
      <rect id="Rectangle_1802" data-name="Rectangle 1802" width="20" height="20" transform="translate(-0.368 -0.368)" fill="none" opacity="0"/>
      <path id="Subtraction_1" data-name="Subtraction 1" d="M3.427,16.07a.641.641,0,0,1-.643-.624l-.044-1.429a.649.649,0,0,0-.217-.458A7.618,7.618,0,0,1,0,7.794,7.744,7.744,0,0,1,8.036,0,7.743,7.743,0,0,1,16.07,7.794a7.744,7.744,0,0,1-8.035,7.795,8.748,8.748,0,0,1-2.326-.309.647.647,0,0,0-.17-.023.637.637,0,0,0-.259.055l-1.594.7A.641.641,0,0,1,3.427,16.07Zm3.166-10.3a1.2,1.2,0,0,0-1.022.562L3.211,10.074a.367.367,0,0,0-.016.383.4.4,0,0,0,.34.206.38.38,0,0,0,.23-.081L6.3,8.656a.484.484,0,0,1,.58,0l1.877,1.409A1.206,1.206,0,0,0,10.5,9.741L12.861,6a.366.366,0,0,0,.016-.382.4.4,0,0,0-.34-.206.38.38,0,0,0-.23.081L9.772,7.414a.482.482,0,0,1-.58,0L7.315,6.008A1.194,1.194,0,0,0,6.594,5.767Z" transform="translate(1.597 1.597)" fill="#fff"/>
    </g>
  </g>
</svg>
