<svg id="quotation_marks" data-name="quotation marks" xmlns="http://www.w3.org/2000/svg" width="24" height="24" viewBox="0 0 24 24">
  <rect id="Rectangle_5" data-name="Rectangle 5" width="24" height="24" fill="none"/>
  <g id="inverted-commas" transform="translate(0.991 3.743)">
    <path id="Path_5127" data-name="Path 5127" d="M13.018,69.9a4.4,4.4,0,1,0-4.4,4.4,4.356,4.356,0,0,0,2.007-.5A7.728,7.728,0,0,1,3.1,79.812a1.1,1.1,0,0,0,0,2.2A9.926,9.926,0,0,0,13.018,72.1Z" transform="translate(9.001 -65.5)" fill="#003f7d"/>
    <path id="Path_5128" data-name="Path 5128" d="M266.818,69.9a4.4,4.4,0,1,0-4.4,4.4,4.356,4.356,0,0,0,2.007-.5,7.728,7.728,0,0,1-7.52,6.008,1.1,1.1,0,1,0,0,2.2,9.926,9.926,0,0,0,9.917-9.917Z" transform="translate(-255.8 -65.5)" fill="#003f7d"/>
  </g>
</svg>
