<svg id="tw" xmlns="http://www.w3.org/2000/svg" width="20" height="20" viewBox="0 0 20 20">
  <rect id="Rectangle_1784" data-name="Rectangle 1784" width="20" height="20" fill="none"/>
  <path id="_x30_4.Twitter" d="M25.837,19.034a6.7,6.7,0,0,1-1.873.518A3.187,3.187,0,0,0,25.4,17.739a6.88,6.88,0,0,1-2.072.8,3.27,3.27,0,0,0-5.658,2.231,2.987,2.987,0,0,0,.08.737A9.2,9.2,0,0,1,11.036,18.1a3.279,3.279,0,0,0,1,4.363,3.137,3.137,0,0,1-1.474-.4,3.3,3.3,0,0,0,2.61,3.247,3.586,3.586,0,0,1-1.474.06,3.281,3.281,0,0,0,3.048,2.271A6.582,6.582,0,0,1,9.9,28.995a9.284,9.284,0,0,0,14.3-7.809,2.941,2.941,0,0,0-.02-.418,6.485,6.485,0,0,0,1.653-1.733Z" transform="translate(-7.869 -13.984)" fill="#fff"/>
</svg>
